<mxfile host="app.diagrams.net" modified="2022-04-10T16:08:54.766Z" agent="5.0 (Windows NT 10.0; Win64; x64) AppleWebKit/537.36 (KHTML, like Gecko) Chrome/100.0.4896.75 Safari/537.36" etag="yvq-p-R-ijSi6hPPMks3" version="17.4.2" type="github">
  <diagram id="wnpju4GCGM5oiUFadoHe" name="Page-1">
    <mxGraphModel dx="1037" dy="619" grid="1" gridSize="10" guides="1" tooltips="1" connect="1" arrows="1" fold="1" page="1" pageScale="1" pageWidth="827" pageHeight="1169" math="0" shadow="0">
      <root>
        <mxCell id="0" />
        <mxCell id="1" parent="0" />
        <mxCell id="ztewTTk_W8dXZbNaQKd7-3" style="edgeStyle=orthogonalEdgeStyle;rounded=0;orthogonalLoop=1;jettySize=auto;html=1;exitX=0.5;exitY=1;exitDx=0;exitDy=0;entryX=0.5;entryY=0;entryDx=0;entryDy=0;" edge="1" parent="1" source="ztewTTk_W8dXZbNaQKd7-1" target="ztewTTk_W8dXZbNaQKd7-2">
          <mxGeometry relative="1" as="geometry" />
        </mxCell>
        <mxCell id="ztewTTk_W8dXZbNaQKd7-1" value="" style="rounded=0;whiteSpace=wrap;html=1;" vertex="1" parent="1">
          <mxGeometry x="230" y="100" width="120" height="60" as="geometry" />
        </mxCell>
        <mxCell id="ztewTTk_W8dXZbNaQKd7-2" value="" style="ellipse;whiteSpace=wrap;html=1;" vertex="1" parent="1">
          <mxGeometry x="230" y="300" width="120" height="80" as="geometry" />
        </mxCell>
      </root>
    </mxGraphModel>
  </diagram>
</mxfile>
